# xmcd
#
# Track frame offsets:
#	150
#	25125
#	44961
#	60540
#	82369
#	103874
#	121673
#	137592
#	153831
#	174042
#	197261
#
# Disc length: 2888 seconds
#
# Revision: 1
# Processed by: cddbd v1.5.2PL0 Copyright (c) Steve Scherf et al.
# Submitted via: EasyCDDAExtractor 7.0.6.1
#
DISCID=8a0b460b
DTITLE=Siiri Nordin - Paremmin kuin kukaan
DYEAR=2011
DGENRE=Pop
TTITLE0=Jee
TTITLE1=Paremmin kuin kukaan
TTITLE2=Lusitaan
TTITLE3=?
TTITLE4=Laika
TTITLE5=Juokse lujempaa
TTITLE6=Hyvillä aikeilla
TTITLE7=Hyvillä aikeilla (kaiku)
TTITLE8=Sanaton
TTITLE9=Uhkapeliä
TTITLE10=Kysy vaan
EXTD=
EXTT0=
EXTT1=
EXTT2=
EXTT3=
EXTT4=
EXTT5=
EXTT6=
EXTT7=
EXTT8=
EXTT9=
EXTT10=
PLAYORDER=
